<svg xmlns="http://www.w3.org/2000/svg" xmlns:xlink="http://www.w3.org/1999/xlink" xmlns:serif="http://www.serif.com/" width="100%" height="100%" viewBox="0 0 600 600" xml:space="preserve" style="fill-rule:evenodd;clip-rule:evenodd;stroke-linejoin:round;stroke-miterlimit:2;"><path d="M229.927,572.263c-40.876,0 -78.71,-7.056 -113.504,-21.168c-34.793,-14.112 -62.895,-35.645 -84.306,-64.599c-21.411,-28.953 -32.117,-65.085 -32.117,-108.394c0,-36.01 10.462,-67.275 31.387,-93.795c20.924,-26.521 50.608,-42.944 89.051,-49.271l0,-2.189c-30.657,-22.871 -45.985,-51.338 -45.985,-85.402c0,-32.117 11.678,-57.907 35.036,-77.372c23.358,-19.465 55.475,-29.197 96.35,-29.197c29.197,0 53.772,6.448 73.723,19.343c19.951,12.895 29.927,31.752 29.927,56.569c0,15.572 -4.501,28.954 -13.504,40.146c-9.002,11.193 -21.046,16.789 -36.131,16.789c-9.246,0 -17.153,-2.433 -23.723,-7.3c-6.569,-4.866 -9.854,-9.002 -9.854,-12.408c0,-0.487 2.19,-2.677 6.57,-6.57c4.379,-3.893 8.394,-8.637 12.044,-14.233c3.649,-5.596 5.474,-12.044 5.474,-19.343c0,-14.112 -4.988,-25.426 -14.964,-33.942c-9.975,-8.516 -22.506,-12.774 -37.591,-12.774c-23.357,0 -41.484,7.056 -54.379,21.168c-12.896,14.112 -19.343,31.63 -19.343,52.555c0,35.523 14.841,61.314 44.525,77.372l24.088,0c7.786,0 13.017,0.852 15.693,2.555c2.677,1.703 4.258,6.691 4.745,14.963c0,4.867 -1.217,9.003 -3.65,12.409c-2.433,3.407 -5.839,5.11 -10.219,5.11l-25.547,0c-31.631,2.919 -55.596,15.328 -71.898,37.226c-16.302,21.898 -24.453,47.202 -24.453,75.912c0,31.144 7.3,58.395 21.898,81.752c14.599,23.358 34.915,41.363 60.949,54.015c26.034,12.652 55.596,18.978 88.686,18.978c35.523,0 68.127,-7.421 97.81,-22.263c29.684,-14.842 53.285,-35.28 70.803,-61.314c17.518,-26.034 26.278,-55.353 26.278,-87.956c0,-28.224 -7.786,-52.798 -23.358,-73.723c-15.572,-20.924 -36.983,-31.386 -64.234,-31.386c-14.112,0 -27.858,4.014 -41.24,12.043c-13.382,8.03 -20.073,19.343 -20.073,33.942c0,7.786 2.068,14.477 6.204,20.073c4.136,5.596 10.341,9.124 18.613,10.584c12.652,1.46 22.871,-0.973 30.657,-7.299c7.786,-6.326 12.165,-9.733 13.139,-10.219c2.433,0.486 5.474,3.771 9.124,9.854c3.649,6.082 5.474,13.017 5.474,20.803c0,14.598 -4.988,26.034 -14.963,34.306c-9.976,8.273 -22.263,12.409 -36.862,12.409c-18.491,0 -33.333,-7.421 -44.525,-22.263c-11.192,-14.842 -16.788,-33.941 -16.788,-57.299c0,-35.037 9.245,-61.801 27.737,-80.292c18.491,-18.492 40.389,-31.022 65.693,-37.591c25.304,-6.57 58.151,-12.287 98.54,-17.154c35.523,-3.406 61.557,-7.786 78.102,-13.138c10.706,-3.893 19.587,-9.368 26.643,-16.424c7.056,-7.056 10.584,-14.963 10.584,-23.722c0,-14.599 -9.003,-23.115 -27.008,-25.548c-12.652,-1.46 -22.871,0.973 -30.656,7.3c-7.786,6.326 -12.166,9.732 -13.139,10.218c-2.92,-0.486 -6.326,-4.379 -10.219,-11.678c-3.893,-7.3 -5.11,-15.572 -3.65,-24.818c1.947,-13.625 7.786,-23.844 17.518,-30.657c9.733,-6.812 21.168,-10.219 34.307,-10.219c10.706,0 19.708,1.703 27.007,5.11c11.679,5.353 20.195,13.868 25.548,25.547c5.353,11.679 8.029,24.574 8.029,38.686c0,26.278 -8.394,49.27 -25.182,68.978c-16.789,19.708 -39.295,34.794 -67.519,45.256c-28.224,10.462 -59.367,15.693 -93.43,15.693c41.849,35.523 62.773,76.643 62.773,123.358c0,44.769 -10.827,83.942 -32.481,117.518c-21.655,33.577 -51.217,59.368 -88.687,77.372c-37.469,18.005 -79.318,27.008 -125.547,27.008Z" style="fill-rule:nonzero;"></path></svg>