<svg xmlns="http://www.w3.org/2000/svg" xmlns:xlink="http://www.w3.org/1999/xlink" xmlns:serif="http://www.serif.com/" width="100%" height="100%" viewBox="0 0 490 530" xml:space="preserve" style="fill-rule:evenodd;clip-rule:evenodd;stroke-linejoin:round;stroke-miterlimit:2;"><path d="M143.28,268.838c3.085,16.431 19.843,31.213 30.677,42.93c11.902,12.883 37.255,32.762 41.892,53.301c-0.93,-8.79 -5.474,-18.074 -8.817,-25.077c-7.739,-16.208 -22.028,-27.065 -32.929,-40.849c-0.361,-0.448 0.207,-0.962 0.629,-0.599c16.495,14.088 30.775,29.623 38.546,50.078c1.914,5.035 4.558,12.485 4.699,19.235c6.446,-22.753 -4.303,-49.264 -18.386,-68.295c-0.255,-0.066 -0.511,-0.21 -0.598,-0.506c-0.059,-0.165 -0.076,-0.333 -0.131,-0.496c-0.655,-0.881 -1.336,-1.707 -2.012,-2.549c-0.415,0.218 -1.009,-0.105 -0.826,-0.64c0.028,-0.105 0.029,-0.226 0.057,-0.33c-1.249,-1.527 -2.511,-3.006 -3.776,-4.39c-3.249,-3.555 -51.847,-36.852 -49.025,-21.813m-19.358,44.86c-17.036,1.86 2.084,11.795 8.704,15.637c9.371,5.434 20.529,8.222 30.983,10.702c12.875,3.051 35.222,4.539 45.524,15.979c-1.654,-2.995 -3.697,-5.935 -5.906,-8.809c-8.687,-7.091 -17.947,-11.059 -29.248,-13.618c-10.062,-2.286 -21.338,-2.137 -30.746,-6.56c-0.6,-0.279 -0.244,-1.176 0.345,-1.161c12.436,0.254 26.013,3.569 38.024,6.742c4.992,1.321 9.845,3.231 14.191,5.883c-5.861,-6.321 -12.027,-12.062 -16.623,-16.829c-0.19,0.078 -0.411,0.117 -0.641,0.019c-18.076,-7.85 -35.001,-10.115 -54.607,-7.985m93.05,61.487c11.346,-10.718 11.87,-34.889 11.377,-48.711c-0.68,-19.153 -2.504,-37.477 -1.86,-56.81c0.237,-7.03 1.809,-14.051 2.686,-21.025c2.331,-18.582 -7.768,-5.53 -13.356,2.014c-9.729,13.127 -14.978,28.229 -15.278,44.326c3.81,4.734 7.27,9.759 10.303,15.012c2.838,4.9 5.366,10.791 7.303,17.125c-0.944,-5.183 -1.886,-10.322 -2.453,-15.319c-1.703,-15.021 -2.399,-30.884 4.537,-44.695c0.227,-0.45 0.86,-0.106 0.765,0.343c-4.984,21.466 -3.969,41.876 -0.331,63.519c1.92,11.411 5.756,24.774 -0.335,35.477c-0.816,3.078 -1.901,6.023 -3.358,8.744m-41.349,28.807c-0.938,2.514 -2.238,4.923 -3.644,7.272c2.311,-2.863 4.434,-5.858 6.362,-8.868c3.124,-4.871 5.533,-10.296 6.223,-16.081c0.6,-5.072 -4.076,-15.437 -10.479,-10.717c-6.591,4.861 -8.653,17.161 -10.359,24.588c-1.437,6.264 -2.14,12.549 -2.757,18.89c1.546,-3.948 3.085,-7.895 5.006,-11.7c0.314,-0.624 0.912,-0.548 1.315,-0.195c0.144,-0.181 0.274,-0.385 0.429,-0.563c0.528,-0.628 1.466,0.098 1.277,0.783c-0.957,3.642 -2.533,7.332 -4.249,10.925c1.405,-1.853 2.549,-4.047 3.562,-5.718c1.916,-3.154 3.451,-6.714 6.012,-9.412c0.531,-0.563 1.578,0.06 1.302,0.796m11.996,7.708c0.16,-0.252 0.405,-0.442 0.793,-0.484c2.999,-0.327 6.019,-0.248 9.026,-0.437c0.922,-0.054 1.292,0.77 1.144,1.498c1.173,-0.003 2.343,-0.005 3.509,0.049c1.23,0.057 1.172,1.885 -0.05,1.895c-2.422,0.02 -4.869,0.289 -7.291,0.34c12.987,5.411 26.647,11.325 39.61,4.714c8.293,-4.225 3.175,-10.855 -2.22,-13.827c-4.026,-2.219 -8.359,-2.315 -12.819,-2.423c-11.295,-0.261 -21.257,2.334 -31.885,4.436c-1.161,0.976 -2.332,1.949 -3.496,2.936c1.221,0.395 2.443,0.837 3.679,1.303m143.317,-56.349c10.489,-9.022 -13.152,-12.928 -16.409,-13.441c-7.936,-1.222 -16.098,-0.747 -24.02,0.191c-9.534,1.138 -18.774,4.017 -28.11,6.251c7.867,-1.147 16.848,-0.933 22.523,3.283c0.879,0.654 0.842,1.788 -0.063,2.386c-0.531,0.347 -1.111,0.557 -1.662,0.822c0.719,0.485 0.548,1.834 -0.551,1.834c-1.395,-0.005 -2.77,-0.138 -4.153,-0.244c-6.838,1.164 -14.664,-1.012 -21.047,-2.154c-1.382,-0.253 -0.993,-2.543 0.383,-2.416c5.583,0.501 11.114,1.519 16.685,2.177c2.338,-0.02 4.623,-0.408 6.772,-1.308c-7.998,-4.009 -18.591,-0.557 -27.066,-1.201c-0.826,-0.064 -0.923,-1.183 -0.136,-1.402c0.074,-0.025 0.142,-0.047 0.22,-0.065c-1.532,0.272 -3.065,0.519 -4.602,0.706c24.12,11.632 58.472,24.138 81.236,4.581m-9.872,-48.957c14.878,0.392 29.634,-0.356 44.451,1.405c15.303,1.818 30.422,3.312 45.63,-0.677c4.908,-1.282 9.69,-3.665 14.294,-5.765c0.788,-0.362 20.197,-12.747 15.796,-13.504c-16.437,-2.848 -31.731,-7.353 -48.647,-7.406c-17.443,-0.059 -33.803,7.01 -50.026,12.382c-10.107,3.349 -20.358,6.142 -30.567,9.106c10.469,-1.9 21.186,-2.466 31.856,-3.626c17.816,-1.951 35.955,-5.894 53.9,-3.629c0.539,0.066 0.515,0.816 -0.034,0.84c-16.255,0.669 -32.324,2.738 -48.502,4.316c-15.653,1.523 -31.536,1.809 -46.723,5.865c6.664,-0.19 13.59,0.564 18.572,0.693m38.206,11.957c-8.847,-1.94 -17.669,-2.899 -26.612,-4.261c13.685,4.215 28.105,9.956 39.551,17.104c5.214,3.258 33.805,33.459 31.323,39.188c8.056,-18.634 -9.303,-46.941 -24.674,-56.911c-0.892,-0.124 -1.781,-0.236 -2.652,-0.331c-0.416,-0.053 -0.581,-0.423 -0.519,-0.738c-13.985,-1.28 -27.874,-3.59 -42.077,-3.521c-6.541,0.035 -16.726,-1.235 -26.254,-1.236c9.594,0.362 18.482,3.494 27.959,4.858c8.234,1.178 16.896,0.778 24.395,4.845c0.578,0.309 0.144,1.123 -0.44,1.003m76.484,-70.699c5.117,-5.242 -28.019,4.314 -27.573,4.149c-7.576,2.827 -14.847,6.719 -22.004,10.439c-20.158,10.472 -39.775,22.228 -60.399,31.648c15.922,-5.256 31.994,-10.097 47.891,-14.044c7.178,-1.781 14.206,-2.399 21.16,-2.296c15.779,-7.722 28.557,-17.263 40.925,-29.896m-53.142,-1.308c5.365,-2.655 9.348,-10.859 0.428,-13.387c-4.186,-1.192 -9.148,-0.548 -13.297,0.389c-10.824,2.436 -19.478,10.598 -29.207,15.554c-0.33,0.426 -0.66,0.847 -0.992,1.269c12.862,4.309 31.801,1.731 43.068,-3.825m-42.715,-3.011c3.138,-12.034 4.188,-23.976 -0.438,-35.966c-2.253,-5.814 -7.467,-15.496 -15.217,-11.997c-4.034,1.819 -3.272,8.539 -2.874,11.945c1.451,12.403 7.428,23.316 13.18,34.146c-0.036,-0.507 -0.051,-1.017 -0.07,-1.525c-1.525,-6.78 -3.873,-13.435 -4.174,-20.306c-0.027,-0.609 0.917,-0.83 1.159,-0.274c1.648,3.907 2.929,8.106 3.947,12.381c0.084,-0.247 0.125,-0.506 0.224,-0.749c0.627,-1.648 2.823,-1.245 2.945,0.463c0.282,4.075 -0.452,8.516 0.906,12.404c0.133,-0.17 0.272,-0.343 0.412,-0.522m29.182,-29.35c0.076,-0.283 0.219,-0.543 0.545,-0.669c1.683,-0.679 5.56,-2.102 7.817,-1.166c2.119,-0.39 4.226,-0.773 6.363,-1.018c0.909,-0.099 1.275,1.25 0.331,1.427c-3.481,0.627 -6.862,1.781 -10.346,2.435c12.219,2.175 25.946,1.388 36.592,-4.107c5.476,-2.825 8.929,-12 0.177,-13.185c-3.735,-0.503 -7.694,0.049 -11.351,0.787c-8.208,1.662 -15.245,5.676 -22.4,9.545c5.683,-0.821 11.483,-1.287 16.913,-2.884c1.084,-0.32 1.447,1.354 0.384,1.693c-7.705,2.441 -16.175,3.819 -24.366,4.812c-0.782,0.38 -1.568,0.763 -2.359,1.113c-0.169,0.222 -0.316,0.458 -0.473,0.685c0.704,0.206 1.452,0.35 2.173,0.532m-0.334,-10.207c2.929,-14.193 -1.971,-47.627 -17.094,-44.428c-13.421,2.845 -0.435,28.655 8.04,43.373c-1.241,-3.663 -1.61,-7.781 -0.681,-11.155c0.326,-1.194 1.976,-1.3 2.545,-0.259c1.935,3.573 2.558,7.54 3.268,11.488c0.329,1.805 0.826,3.527 0.924,5.301c1.001,-1.438 1.998,-2.874 2.998,-4.32m25.027,-27.979c0.102,-0.206 0.218,-0.405 0.465,-0.53c1.847,-0.894 3.697,-1.213 5.607,-1.207c1.066,-0.234 2.124,-0.468 3.199,-0.663c0.622,-0.12 1.244,0.749 0.636,1.193c-0.059,0.043 -0.144,0.065 -0.209,0.107c0.457,0.645 0.088,1.803 -0.752,2.03c-1.032,0.277 -2.061,0.415 -3.071,0.439c10.467,1.613 23.246,-0.241 30.724,-6.062c10.461,-8.149 -6.744,-9.454 -11.636,-8.576c-10.415,1.864 -17.544,7.846 -26.312,12.815c0.433,0.167 0.891,0.306 1.349,0.454m-0.965,-8.42c1.445,-9.568 0.659,-19.905 -1.628,-29.157c-1.528,-6.194 -5.087,-12.974 -12.216,-13.335c-5.007,-0.257 -3.706,7.618 -3.252,10.424c1.739,10.775 6.898,20.156 11.376,29.816c0.315,-1.189 0.923,-2.325 1.827,-3.232c0.806,-0.807 2.172,-0.115 2.151,0.97c-0.02,1.431 0.2,2.842 0.514,4.238c0.103,0.446 0.215,1.025 0.377,1.596c0.284,-0.443 0.57,-0.879 0.851,-1.32m22.713,-26.426c0.087,-0.104 0.187,-0.215 0.366,-0.403c0.227,-0.228 0.528,-0.03 0.596,0.211c1.226,-0.181 2.462,-0.22 3.709,-0.103c2.806,-0.515 5.6,-1.074 8.406,-1.51c1.256,-0.198 1.73,1.697 0.451,1.947c-2.186,0.438 -4.334,0.978 -6.493,1.523c-0.218,0.375 -0.591,0.674 -1.063,0.716c-1.18,0.105 -2.349,0.27 -3.522,0.411c-0.604,0.136 -1.213,0.248 -1.83,0.378c12.427,3.403 30.592,-2.146 40.325,-7.991c5.94,-3.58 5.19,-9.686 -1.961,-10.576c-3.847,-0.475 -7.864,0.107 -11.64,0.762c-11.056,1.897 -19.166,8.898 -28.151,14.795c0.263,-0.073 0.537,-0.106 0.807,-0.16m-6.312,-4.137c0.001,-1.228 -0.099,-2.483 -0.233,-3.713c-0.121,-1.14 -0.292,-2.296 -0.531,-3.431c-0.425,2.604 0.171,5.518 0.154,8.122c0.143,0.409 0.293,0.815 0.43,1.228c0.319,-0.561 0.179,-1.655 0.18,-2.206m6.909,-9.149c0.499,-9.088 -3.715,-19.489 -7.835,-26.256c-1.571,-2.559 -6.572,-9.203 -8.752,-3.787c-1.684,4.2 -0.576,9.629 0.1,13.894c1.094,6.878 3.75,13.13 6.321,19.434c0.115,-1.99 0.608,-3.893 1.711,-5.407c0.614,-0.825 1.732,-0.632 2.064,0.328c0.867,2.607 1.165,5.366 1.302,8.097c0.045,0.963 0.041,1.985 -0.113,2.969c1.748,-3.084 3.491,-6.169 5.202,-9.272m23.909,-20.684c-0.359,0.137 -0.722,0.253 -1.081,0.385c-1.465,0.779 -2.969,1.422 -4.526,1.673c12.186,2.319 45.043,-8.472 37.862,-18.184c-4.606,-6.243 -18.81,1.78 -23.48,4.273c-5.25,2.823 -10.111,6.259 -14.422,10.326c2.46,-1.522 5.264,-2.317 8.233,-2.502c0.528,-0.03 0.831,0.318 0.927,0.729c0.648,-0.122 1.162,0.739 0.637,1.272c-1.057,1.049 -2.793,1.529 -4.15,2.028m-11.092,-3.464c2.98,-11.815 3.158,-25.643 -5.096,-34.558c-5.115,-5.55 -8.459,0.1 -8.781,5.039c-0.232,3.6 0.751,7.337 1.566,10.821c1.563,6.639 4.375,12.569 7.489,18.477c0.183,-1.964 0.592,-3.911 1.462,-5.761c0.461,-0.998 2.006,-0.418 1.967,0.589c-0.129,2.681 -0.34,5.294 0.107,7.918c0.433,-0.84 0.857,-1.679 1.286,-2.525m19.397,-25.797c1.197,-0.43 2.444,-0.751 3.64,-1.135c2.481,-0.794 4.96,-1.898 7.562,-2.229c0.978,-0.118 1.49,1.099 0.6,1.639c-1.656,1.009 -3.404,1.682 -5.224,2.138c-0.51,0.184 -1.023,0.378 -1.531,0.565c-1.172,0.428 -2.348,0.917 -3.554,1.24c4.918,-0.29 11.348,-2.091 13.142,-2.538c5.845,-1.432 17.178,-3.879 18.059,-11.215c0.653,-5.426 -15.846,1.418 -17.412,2.108c-5.073,2.225 -11.333,5.156 -15.282,9.427m-13.001,-35.141c-9.317,-5.841 -3.818,11.385 -2.365,14.492c1.319,2.869 3.142,5.381 5.042,7.835c-0.002,-0.034 -0.004,-0.082 0.006,-0.119c0.17,-1.326 1.945,-1.938 2.655,-0.615c1.032,1.94 2.397,4.073 3.412,6.316c-0.051,-10.225 0.346,-22.206 -8.75,-27.909m22.766,12.887c1.973,-1.028 4.066,-1.895 5.935,-2.805c0.819,-0.385 1.46,0.801 0.665,1.251c-1.109,0.623 -2.257,1.343 -3.42,2.063c0.033,-0.005 0.068,-0.021 0.1,-0.026c5.437,-1.756 10.943,-3.237 15.862,-6.228c2.801,-1.697 7.397,-9.563 0.455,-8.042c-2.794,0.62 -5.282,2.3 -7.719,3.693c-4.844,2.766 -8.421,6.268 -11.878,10.094m-2.065,-9.966c-0.012,-4.404 0.078,-8.778 -0.966,-13.114c-0.826,-3.389 -2.815,-6.088 -5.759,-7.917c-1.52,-0.936 -4.186,-2.274 -4.863,0.116c-0.968,3.552 1.481,8.424 3.007,11.466c0.927,1.859 2.127,3.454 3.399,5.011c0.089,-0.774 0.206,-1.546 0.328,-2.273c0.246,-1.454 2.326,-1.13 2.653,0.082c0.644,2.35 0.738,5.332 1.739,7.68c0.148,-0.351 0.312,-0.703 0.462,-1.051m18.404,-18.339c-0.888,1.248 -1.87,2.45 -2.908,3.616c0.745,-0.461 1.521,-0.913 2.209,-1.395c3.147,-2.189 6.126,-4.57 8.753,-7.368c2.252,-2.373 4.861,-11.291 -1.289,-10.28c-5.274,0.863 -9.483,10.28 -11.709,14.38c-0.903,1.683 -1.73,3.393 -2.527,5.121c2.093,-1.842 4.254,-3.596 6.567,-5.042c0.567,-0.362 1.298,0.421 0.904,0.968m-6.817,-15.202c0.231,-2.572 0.356,-5.481 -0.716,-7.882c-0.846,-1.896 -2.995,-2.415 -3.651,-0.312c-1.437,4.567 -0.225,9.262 0.858,13.926c0.134,-1.519 0.44,-3.069 1.493,-4.125c0.292,-0.293 0.775,-0.04 0.778,0.349c-0.008,1.782 -0.054,3.569 -0.04,5.352c0.586,-2.395 1.06,-4.815 1.278,-7.308m-171.501,251.233c0.14,-8.871 -1.009,-17.504 -4.334,-25.75c-1.413,-3.493 -3.725,-6.605 -6.188,-9.421c-4.902,-5.588 -6.771,4.344 -7.211,6.376c-2.194,10.19 -1.044,20.866 1.828,30.748c1.831,6.266 4.794,12.442 7.484,18.683c-0.143,-3.757 0.049,-7.556 0.531,-11.213c0.187,-1.433 2.151,-1.734 2.563,-0.252c2.198,7.984 2.696,16.141 2.734,24.347c3.127,-10.601 2.426,-23.012 2.593,-33.518m-146.734,-21.838c0.801,0.06 1.539,0.201 2.296,0.345c0.321,-0.349 0.645,-0.696 0.97,-1.038c1.764,-1.897 4.293,-0.005 4.236,2.054c0.16,0.085 0.311,0.148 0.53,0.319c0.711,0.325 1.047,0.876 1.142,1.486c3.913,2.586 7.083,6.395 10.175,10.337c7.248,9.275 13.895,18.999 20.813,28.525c2.414,2.215 4.755,4.503 6.953,6.936c-0.061,-0.989 -0.205,-2.005 -0.398,-3.046c-4.215,-7.125 -7.357,-14.993 -10.206,-22.706c-1.662,-4.507 -2.673,-9.292 -3.957,-13.919c-0.285,-1.023 -1.324,-3.744 -2.392,-6.408c-0.067,1.027 -0.202,2.107 -0.482,3.35c-0.255,1.11 -1.999,1.305 -2.453,0.251c-0.477,-1.103 -0.82,-2.196 -1.187,-3.3c-0.322,-0.098 -0.645,-0.257 -0.957,-0.521c-1.77,-1.5 -1.041,-4.368 -1.063,-6.341c0.001,-0.382 0.067,-0.722 0.183,-1.019c0.107,-0.82 0.271,-1.682 0.506,-2.625c0.171,-0.657 0.9,-1.228 1.6,-1.153c5.436,0.585 7.781,12.832 9.058,17.117c2.343,7.851 4.543,15.939 7.383,23.746c-0.505,-1.681 -0.925,-3.291 -1.157,-4.776c-1.791,-11.702 -1.073,-23.39 0.218,-35.09c0.145,-1.285 1.837,-1.809 2.564,-0.988c1.106,-1.938 4.662,-0.909 4.681,1.566c0.031,3.755 0.118,6.569 -0.781,10.196c-0.327,1.314 -1.864,1.532 -2.774,0.847c-0.556,0.84 -1.507,1.044 -2.371,0.776c-0.759,10.058 -0.189,20.643 2.378,29.796c0.719,2.573 1.922,5.563 2.765,8.591c1.747,-19.734 16.709,-41.096 30.486,-51.847c0.938,-0.733 2.21,-0.412 2.557,0.78c3.532,12.023 -0.544,24.005 -1.684,36.145c-1.486,15.869 -0.515,31.587 0.781,47.361c1.688,-4.002 3.56,-7.916 5.609,-11.768c3.262,-6.121 5.686,-12.557 8.736,-18.755c0.237,-0.479 1.056,-0.229 0.992,0.291c-1.363,11.906 -10.597,22.242 -15.116,33.15c0.03,0.289 0.05,0.578 0.069,0.864c0.267,3.104 0.51,7.149 0.573,11.635c3.881,-12.229 11.925,-23.957 16.042,-35.817c3.735,-10.752 6.988,-22.379 4.68,-33.756c-1.363,-6.714 -12.104,9.258 -13.172,10.894c-3.784,5.824 -5.531,12.512 -8.041,18.882c-0.237,0.611 -1.217,0.534 -1.171,-0.184c0.77,-13.962 9.923,-27.633 20.459,-36.336c0.817,-0.68 1.967,-0.524 2.519,0.416c15.113,26.217 -13.25,57.882 -21.358,82.247c-0.285,10.072 -1.683,21.226 -5.753,29.211c15.454,-14.366 30.535,-29.072 45.155,-44.122c6.894,-7.102 13.636,-14.337 20.299,-21.655c-6.842,-16.127 -15.145,-34.524 -15.745,-51.803c-0.164,-4.716 -0.964,-25.972 6.869,-26.819c11.466,-1.225 16.292,21.661 16.9,29.365c0.929,11.868 2.398,28.832 -1.61,42.092c13.288,-14.885 26.152,-30.145 38.467,-45.833c-0.027,-0.468 -0.079,-0.943 -0.115,-1.419c-6.037,-6.303 -9.433,-17.398 -12.265,-25.046c-2.848,-7.688 -7.471,-20.273 -1.968,-27.848c6.061,-8.353 15.62,1.439 18.8,6.954c6.725,11.687 6.059,25.069 3.073,37.703c6.803,-8.91 13.467,-17.931 19.937,-27.08c-8.582,-9.236 -33.341,-57.972 -7.469,-56.227c11.927,0.801 18.131,27.365 16.471,43.21c5.708,-8.358 11.325,-16.775 16.746,-25.322c-5.356,-6.435 -8.39,-16.927 -11.103,-24.174c-2.506,-6.684 -7.682,-18.644 -3.045,-25.515c5.081,-7.54 15.022,2.751 17.322,7.319c4.565,9.09 4.982,21.138 3.577,31.703c4.563,-7.422 9.049,-14.894 13.399,-22.455c-0.041,-0.025 -0.083,-0.022 -0.11,-0.06c-8.166,-9.476 -11.889,-24.616 -12.604,-36.82c-0.352,-5.945 2.297,-15.264 9.668,-10.352c7.616,5.068 10.883,17.284 12.426,25.632c0.217,1.182 0.401,2.49 0.531,3.86c2.202,-4.042 4.388,-8.088 6.528,-12.174c-0.311,-0.977 -0.591,-1.96 -0.75,-2.958c-7.162,-8.097 -10.568,-20.431 -11.925,-30.828c-0.519,-3.948 0.029,-14.026 6.083,-14.028c8.299,0.001 12.601,10.484 14.008,17.199c1.049,5.011 1.007,10.32 0.255,15.56c3.484,-6.981 6.912,-14.005 10.203,-21.088c-0.117,-0.034 -0.232,-0.012 -0.345,-0.084c-0.664,-0.451 -1.288,-0.972 -1.922,-1.493c0.005,0.024 0.009,0.053 -0.003,0.086c-0.009,0.706 -1.055,0.991 -1.364,0.318c-0.388,-0.818 -0.662,-1.653 -0.879,-2.49c-4.942,-5.059 -8.668,-12.143 -10.766,-18.402c-1.549,-4.602 -2.965,-13.045 2.803,-15.179c6.066,-2.239 12.23,7.485 13.847,11.707c2.119,5.506 2.479,11.895 2.115,18.076c2.85,-6.282 5.614,-12.599 8.306,-18.946c-0.483,-0.546 -0.896,-1.123 -1.235,-1.748c-0.153,0.603 -0.942,1.094 -1.418,0.469c-0.396,-0.516 -0.641,-1.102 -0.836,-1.694c-3.774,-1.922 -6.259,-7.278 -7.753,-10.747c-1.661,-3.869 -3.777,-10.006 -0.636,-13.664c3.295,-3.831 10.544,1.852 12.34,4.535c2.61,3.906 3.538,8.561 3.595,13.29c0.324,-0.79 0.674,-1.573 1.002,-2.365c-0.26,-0.227 -0.392,-0.594 -0.184,-0.949c0.397,-0.686 0.892,-1.265 1.354,-1.877c0.054,-0.138 0.122,-0.288 0.181,-0.432c0.096,-0.233 0.26,-0.355 0.44,-0.428c0.634,-0.751 1.326,-1.466 2.033,-2.184c0.487,-1.075 1.045,-2.151 1.633,-3.222c-0.457,0.26 -1.045,-0.066 -1.197,-0.545l-0.102,-0.261c-0.066,-0.161 -0.059,-0.356 0.001,-0.528c-2.03,-3.554 -2.242,-8.844 -2.706,-12.642c-0.369,-3.058 -1.899,-11.245 1.76,-13.145c4.605,-2.383 6.816,4.319 7.069,7.498c0.292,3.693 -0.443,7.54 -1.26,11.133c-0.34,1.491 -0.749,3.185 -1.35,4.787c1.095,-1.759 2.199,-3.402 3.105,-4.79c2.213,-3.406 7.749,-11.931 12.994,-9.497c15.006,6.964 -10.84,24.501 -20.108,29.258c-0.483,0.46 -0.973,0.925 -1.43,1.384c-0.612,0.606 -1.348,0.561 -1.915,0.201c-0.501,1.336 -1.046,2.648 -1.57,3.983c-0.204,1.896 -0.505,3.772 -0.855,5.561c-0.154,0.777 -1.065,0.62 -1.37,0.069c-0.344,0.863 -0.686,1.73 -1.031,2.599c3.973,-4.759 9.922,-8.446 14.853,-11.147c3.643,-2.006 11.751,-5.938 14.309,-0.494c2.758,5.868 -5.787,11.4 -9.793,13.345c-3.515,1.706 -7.353,2.783 -11.077,3.926c-2.982,0.91 -6.72,2.896 -9.862,2.737c-0.169,0 -0.253,-0.107 -0.336,-0.205c-0.125,0.143 -0.246,0.28 -0.382,0.429c-0.362,0.409 -0.845,0.386 -1.209,0.14c-1.991,4.806 -4.068,9.578 -6.165,14.331c-0.04,0.276 -0.076,0.567 -0.113,0.841c-0.002,0.019 -0.015,0.027 -0.025,0.041c-0.004,0.038 -0.006,0.075 -0.003,0.109c6.315,-6.891 39.512,-23.566 38,-9.731c-1.159,10.533 -34.145,19.381 -39.938,13.478c-3.228,7.193 -6.607,14.295 -10.058,21.363c10.525,-10.296 37.504,-23.559 41.738,-10.244c2.905,9.163 -10.044,13.624 -16.553,16.026c-5.77,2.138 -23.288,8.169 -28.372,1.666c-0.157,-0.21 -0.182,-0.444 -0.147,-0.677c-0.002,-0.003 -0.013,-0.006 -0.013,-0.006c-3.777,7.54 -7.722,14.996 -11.739,22.391c-0.21,1.394 -0.537,2.739 -1.026,3.988c8.763,-6.69 19.252,-11.634 30.163,-12.37c7.607,-0.508 19.402,0.48 15.523,10.939c-2.923,7.921 -17.496,10.775 -24.419,12.298c-7.212,1.584 -21.558,4.569 -27.504,-1.76c-4.698,8.272 -9.551,16.46 -14.548,24.567c7.419,-5.356 17.232,-8.707 25.61,-9.391c5.007,-0.412 14.585,0.269 14.384,7.176c-0.231,7.985 -12.371,11.368 -18.329,12.627c-8.167,1.727 -19.419,2.584 -26.723,-2.318c-6.649,10.528 -13.6,20.872 -20.709,31.103c10.14,-6.816 22.323,-12.059 34.292,-12.967c7.704,-0.577 17.195,1.603 13.636,11.079c-3.305,8.789 -16.297,11.018 -24.2,11.995c-8.704,1.08 -20.492,1.387 -28.546,-3.118c-6.262,8.833 -12.703,17.548 -19.282,26.156c8.966,-6.001 19.673,-10.737 29.497,-11.297c8.672,-0.49 17.861,3.102 13.962,13.041c-3.18,8.122 -16.814,9.884 -24.01,10.865c-7.96,1.094 -19.08,2.074 -27.131,-1.359c-0.154,1.569 -0.617,3.002 -1.765,3.9c-0.382,0.305 -0.88,0.242 -1.145,-0.186c-0.182,-0.293 -0.29,-0.626 -0.395,-0.946c-13.166,16.587 -26.901,32.772 -41.116,48.555c30.521,-8.933 57.325,-25.662 84.826,-41.292c19.539,-11.108 39.256,-21.316 62.282,-20.079c1.555,0.082 2.232,1.939 1.154,3.036c-11.435,11.536 -22.837,23.346 -37.265,30.376c4.967,-1.595 9.749,-3.7 14.545,-5.844c2.965,-1.321 5.919,-2.632 8.915,-3.878c1.074,-0.421 2.15,-0.829 3.232,-1.228c1.423,-1.075 2.75,-1.264 3.979,-0.648c0.051,-0.096 0.033,-0.197 0.128,-0.278c0.219,-0.197 0.434,-0.339 0.645,-0.519c-0.903,0.127 -0.817,0.091 0.176,-0.132c0.403,-0.331 0.822,-0.665 1.225,-0.934c2.72,-4.527 6.852,-6.576 12.024,-7.7c2.453,-0.543 4.118,2.548 2.289,4.287c-3.332,3.182 -6.409,5.101 -10.413,6.021c-0.376,0.27 -0.802,0.569 -1.357,0.96c-0.996,0.717 -1.99,0.276 -2.591,-0.526c-0.157,-0.064 -0.309,-0.136 -0.403,-0.268c-0.13,0.035 -0.258,0.083 -0.381,0.123c0.036,0.032 0.072,0.056 0.114,0.098c-0.297,0.238 -0.608,0.236 -0.889,0.149c-11.825,3.72 -22.537,10.322 -34.789,12.612c0.644,0.08 1.282,0.155 1.931,0.219c13.418,-3.872 27.535,-4.637 41.137,-7.476c4.314,-3.431 8.363,-4.74 13.929,-3.6c2.657,0.554 2.446,4.045 0.526,5.242c-5.07,3.158 -10.053,4.333 -15.981,3.424c-1.155,-0.171 -1.918,-1.885 -0.578,-2.482c0.225,-0.094 0.458,-0.166 0.671,-0.267c0,-0.138 0.023,-0.275 0.041,-0.419c-11.515,1.24 -23.012,4.194 -34.434,6.178c12.524,1.667 24.95,4.738 37.656,6.92c0.833,0.144 1.308,1.204 1.065,1.952c-4.169,12.789 -23.324,20.568 -38.903,23.808c10.932,-0.845 22.276,-0.754 32.662,0.817c0.244,0.032 0.463,0.15 0.652,0.302c0.153,-0.044 0.317,-0.059 0.473,-0.087c-0.024,-0.026 -0.042,-0.042 -0.062,-0.062c-0.661,-0.584 -0.097,-1.872 0.79,-1.764c1.054,0.136 2.082,0.181 3.109,0.178c0.278,-0.209 0.573,-0.388 0.937,-0.457c2.314,-0.493 4.496,-0.866 6.846,-1.035c2.615,-0.193 3.692,4.146 1.177,5.079c-0.774,0.287 -1.514,0.511 -2.234,0.692c-0.389,1.208 -1.583,2.172 -3.065,1.778c-3.533,-0.944 -6.613,-0.681 -10.119,0.088c-1.692,0.378 -2.666,-1.524 -1.892,-2.747c-14.095,-1.686 -28.277,1.838 -42.253,-0.063c-0.489,-0.063 -0.737,-0.647 -0.53,-1.002c-3.184,0.114 -6.355,0.065 -9.514,-0.062c14.453,2.229 28.601,7.023 41.893,12.977c0.463,-0.082 0.958,-0.07 1.487,0.187c0.101,0.044 0.198,0.104 0.302,0.154c0.511,0.202 1.029,0.492 1.552,0.846c1.556,0.844 3.061,1.762 4.568,2.767c1.104,0.737 1.417,2.232 0.779,3.283c0.11,1.359 -1.268,2.758 -2.653,2.224c-0.379,-0.141 -0.663,-0.296 -0.99,-0.44c-3.934,0.888 -8.629,0.066 -7.704,-5.305c0.081,-0.45 0.187,-0.835 0.299,-1.201c-10.796,-7.297 -25.208,-11.473 -38.55,-13.843c16.503,10.931 24.74,44.195 18.091,59.476c-0.491,1.13 -2.088,1.551 -2.746,0.282c-11.15,-21.687 -28.756,-41.854 -51.625,-50.196c-20.57,-7.488 -40.876,-19.216 -63.327,-12.415c-0.162,0.049 -0.3,0.018 -0.414,-0.049c-3.008,3.274 -6.019,6.56 -9.072,9.803c-8.028,8.492 -16.246,16.872 -24.58,25.173c19.056,-5.824 39.473,-9.384 59.197,-7.792c5.86,0.474 26.442,3.429 23.577,13.178c-3.854,13.113 -25.454,15.636 -36.178,15.39c-18.018,-0.418 -35.681,-7.776 -51.545,-15.827c-11.706,11.538 -23.75,22.827 -36.03,33.898l-0.007,0.004c-0.129,0.207 -0.303,0.343 -0.486,0.44c-5.898,5.311 -11.845,10.589 -17.865,15.781c18.148,-4.879 48.515,-4.994 47.666,12.263c-0.486,10.069 -17.185,10.999 -23.992,10.314c-12.319,-1.236 -24.667,-6.975 -35.902,-12.228c-55.074,46.023 -115.041,86.612 -178.601,117.891c-2.498,1.234 -4.542,-2.6 -2.028,-3.843c55.628,-27.595 107.931,-61.871 156.781,-100.554c-0.147,-0.385 -0.108,-0.856 0.319,-1.151c0.075,-0.048 0.147,-0.107 0.222,-0.168c-3.298,-8.638 1.51,-22.594 3.815,-30.965c1.869,-6.829 6.057,-22.449 15.727,-21.471c11.298,1.133 9.084,17.108 6.395,23.838c-2.291,5.729 -5.855,11.511 -10.154,16.719c13.003,-10.717 25.741,-21.741 38.224,-33.023c1.659,-4.535 1.643,-9.123 0.562,-13.677c-10.005,-19.71 -38.367,-19.782 -56.755,-24.097c-17.527,-4.12 -33.671,-12.971 -45.929,-26.109c-0.695,-0.743 -0.343,-2.076 0.692,-2.279c21.236,-4.276 44.422,-5.281 64.262,4.335c-14.728,-15.152 -35.922,-35.566 -35.613,-57.33c0.006,-0.672 0.521,-1.316 1.186,-1.447c9.523,-1.987 24.536,8.191 32.683,12.757c3.105,1.745 6.024,3.739 8.855,5.855c-3.432,-4.663 -6.747,-9.422 -10.334,-13.961c-3.738,-4.731 -8.325,-12.89 -14.327,-16.722c-0.575,0.594 -1.397,0.922 -2.303,0.642c-3.744,-1.172 -3.667,-1.145 -7.035,-2.863c-1.572,-0.803 -0.732,-3.35 0.962,-3.241" style="fill:#c78665;fill-rule:nonzero;"></path><path d="M344.183,249.061c2.22,-1.805 4.369,-2.575 7.266,-2.656c0.596,-0.012 0.88,0.418 0.895,0.883c1.848,-0.455 3.686,-0.98 5.495,-1.687c1.222,-0.47 2.209,1.309 0.964,1.833c-4.326,1.828 -9.015,3.343 -13.704,3.851c-0.332,0.032 -0.646,-0.097 -0.917,-0.29c-0.347,-0.048 -0.68,-0.126 -1.003,-0.264c-0.519,-0.214 -0.757,-1.034 -0.128,-1.318c0.372,-0.17 0.749,-0.246 1.132,-0.352" style="fill:#c78665;fill-rule:nonzero;"></path><path d="M291.974,360.269c2.283,-0.054 4.55,-0.082 6.845,-0.077c0.726,0.006 0.873,1.19 0.127,1.288c-2.123,0.285 -4.209,0.687 -6.349,0.859c-2.115,0.175 -4.541,0.481 -6.494,-0.506c-0.617,-0.309 -0.361,-1.202 0.216,-1.353c1.805,-0.484 3.804,-0.17 5.655,-0.211" style="fill:#c78665;fill-rule:nonzero;"></path><path d="M356.366,280.843c12.837,-6.338 26.828,-12.266 40.718,-15.874c0.498,-0.128 0.804,0.657 0.314,0.86c-13.292,5.64 -27.045,11.221 -40.755,15.754c-0.432,0.143 -0.669,-0.545 -0.277,-0.74" style="fill:#c78665;fill-rule:nonzero;"></path><path d="M383.602,290.839c8.217,-1.694 16.806,-1.329 25.16,-1.28c1.04,0.012 0.972,1.576 -0.061,1.614c-8.304,0.276 -16.667,0.964 -24.982,0.844c-0.681,-0.006 -0.785,-1.045 -0.117,-1.178" style="fill:#c78665;fill-rule:nonzero;"></path><path d="M385.943,326.987c0.914,0.408 0.094,1.737 -0.804,1.333c-4.233,-1.895 -8.226,-4.595 -12.295,-6.821c-0.376,-0.213 -0.191,-0.838 0.242,-0.809c4.751,0.373 8.627,4.399 12.857,6.297" style="fill:#c78665;fill-rule:nonzero;"></path><path d="M397.419,322.929c-1.002,-0.738 -2.074,-1.396 -3.003,-2.238c-0.466,-0.423 0.169,-1.042 0.657,-0.805c8.017,3.821 14.849,10.862 21.392,17.311c0.919,-0.273 1.975,-0.018 2.691,1.129c1.24,1.979 2.465,3.648 3.634,5.633c0.239,0.407 0.293,0.793 0.273,1.164c0.096,0.175 0.201,0.327 0.304,0.512c1.314,2.459 -2.275,5.196 -4.067,2.915c-0.149,-0.189 -0.24,-0.385 -0.378,-0.571c-0.004,0.002 -0.01,0.006 -0.015,0.013c-0.021,-0.037 -0.03,-0.067 -0.055,-0.11c-1.695,-2.276 -2.943,-4.561 -3.979,-7.292c-0.332,-0.898 -0.184,-1.685 0.195,-2.311c-2.248,-2.058 -4.604,-4.058 -6.636,-6.166c-2.977,-3.091 -6.037,-5.957 -9.473,-8.544c-0.266,-0.2 -0.626,-0.494 -1.009,-0.818c-0.085,0.213 -0.295,0.348 -0.531,0.178" style="fill:#c78665;fill-rule:nonzero;"></path><path d="M202.264,323.356c0.256,0.389 -0.398,0.869 -0.683,0.483c-6.174,-8.436 -13.292,-16.105 -19.538,-24.451c-0.346,-0.46 0.21,-0.994 0.653,-0.611c7.874,6.865 13.815,15.949 19.568,24.579" style="fill:#c78665;fill-rule:nonzero;"></path><path d="M214.204,276.032c-4.903,10.128 -4.425,22.544 -2.249,33.292c0.069,0.311 -0.366,0.403 -0.466,0.106c-3.986,-10.958 -3.16,-23.471 1.951,-33.861c0.256,-0.525 1.008,-0.05 0.764,0.463" style="fill:#c78665;fill-rule:nonzero;"></path><path d="M240.425,292.609c-0.705,3.417 -2.402,6.681 -4.567,9.398c-0.36,0.465 -1.141,0.011 -0.783,-0.474c2.098,-2.848 3.024,-6.149 4.703,-9.215c0.207,-0.372 0.73,-0.08 0.647,0.291" style="fill:#c78665;fill-rule:nonzero;"></path><path d="M144.252,324.017c-0.398,-0.076 -0.376,-0.745 0.024,-0.79c5.366,-0.664 10.974,0.319 16.363,0.492c0.977,0.035 0.927,1.544 -0.047,1.517c-5.391,-0.186 -11.035,-0.194 -16.34,-1.219" style="fill:#c78665;fill-rule:nonzero;"></path></svg>